<svg xmlns="http://www.w3.org/2000/svg" viewBox="0 0 128 128">
  <defs>
    <linearGradient id="core" x1="24" y1="16" x2="104" y2="112" gradientUnits="userSpaceOnUse">
      <stop offset="0" stop-color="#7de3d8"/>
      <stop offset="0.52" stop-color="#3aa6b8"/>
      <stop offset="1" stop-color="#f0d98a"/>
    </linearGradient>
    <linearGradient id="shell" x1="18" y1="18" x2="110" y2="110" gradientUnits="userSpaceOnUse">
      <stop offset="0" stop-color="#172024"/>
      <stop offset="1" stop-color="#0b0d10"/>
    </linearGradient>
  </defs>
  <rect x="10" y="10" width="108" height="108" rx="22" fill="url(#shell)"/>
  <rect x="15" y="15" width="98" height="98" rx="18" fill="none" stroke="#2f454c" stroke-width="2"/>
  <circle cx="64" cy="64" r="33" fill="none" stroke="url(#core)" stroke-width="7"/>
  <path d="M44 82V46h8l24 24V46h9v36h-8L53 58v24z" fill="#eef6f7"/>
  <circle cx="64" cy="64" r="9" fill="#101417" stroke="#77e0d4" stroke-width="4"/>
  <path d="M64 22v15M64 91v15M22 64h15M91 64h15" stroke="#77e0d4" stroke-width="5" stroke-linecap="round"/>
  <path d="M34 34l11 11M83 83l11 11M94 34L83 45M45 83L34 94" stroke="#f0d98a" stroke-width="4" stroke-linecap="round"/>
</svg>
